G04*
G04 #@! TF.GenerationSoftware,Altium Limited,Altium Designer,24.1.2 (44)*
G04*
G04 Layer_Physical_Order=2*
G04 Layer_Color=16711680*
%FSLAX25Y25*%
%MOIN*%
G70*
G04*
G04 #@! TF.SameCoordinates,A00A13EA-C99A-4939-B284-DF639B961888*
G04*
G04*
G04 #@! TF.FilePolarity,Positive*
G04*
G01*
G75*
G04:AMPARAMS|DCode=10|XSize=39.37mil|YSize=78.74mil|CornerRadius=4.92mil|HoleSize=0mil|Usage=FLASHONLY|Rotation=0.000|XOffset=0mil|YOffset=0mil|HoleType=Round|Shape=RoundedRectangle|*
%AMROUNDEDRECTD10*
21,1,0.03937,0.06890,0,0,0.0*
21,1,0.02953,0.07874,0,0,0.0*
1,1,0.00984,0.01476,-0.03445*
1,1,0.00984,-0.01476,-0.03445*
1,1,0.00984,-0.01476,0.03445*
1,1,0.00984,0.01476,0.03445*
%
%ADD10ROUNDEDRECTD10*%
G04:AMPARAMS|DCode=11|XSize=216.54mil|YSize=224.41mil|CornerRadius=27.07mil|HoleSize=0mil|Usage=FLASHONLY|Rotation=0.000|XOffset=0mil|YOffset=0mil|HoleType=Round|Shape=RoundedRectangle|*
%AMROUNDEDRECTD11*
21,1,0.21654,0.17028,0,0,0.0*
21,1,0.16240,0.22441,0,0,0.0*
1,1,0.05413,0.08120,-0.08514*
1,1,0.05413,-0.08120,-0.08514*
1,1,0.05413,-0.08120,0.08514*
1,1,0.05413,0.08120,0.08514*
%
%ADD11ROUNDEDRECTD11*%
%ADD12R,0.09843X0.06693*%
G04:AMPARAMS|DCode=13|XSize=75.2mil|YSize=35.83mil|CornerRadius=4.12mil|HoleSize=0mil|Usage=FLASHONLY|Rotation=0.000|XOffset=0mil|YOffset=0mil|HoleType=Round|Shape=RoundedRectangle|*
%AMROUNDEDRECTD13*
21,1,0.07520,0.02759,0,0,0.0*
21,1,0.06696,0.03583,0,0,0.0*
1,1,0.00824,0.03348,-0.01379*
1,1,0.00824,-0.03348,-0.01379*
1,1,0.00824,-0.03348,0.01379*
1,1,0.00824,0.03348,0.01379*
%
%ADD13ROUNDEDRECTD13*%
%ADD14R,0.05906X0.06299*%
%ADD15R,0.09449X0.03937*%
%ADD16R,0.09449X0.12992*%
%ADD17R,0.07874X0.03937*%
%ADD18R,0.04724X0.05512*%
%ADD19R,0.05512X0.04724*%
%ADD20O,0.02165X0.07874*%
%ADD21R,0.06693X0.09843*%
%ADD22R,0.06299X0.05906*%
%ADD23C,0.01968*%
%ADD24C,0.03150*%
%ADD25O,0.05118X0.07874*%
%ADD26R,0.05118X0.07874*%
%ADD27O,0.05906X0.07874*%
%ADD28C,0.08268*%
%ADD29R,0.08268X0.08268*%
%ADD30C,0.05906*%
%ADD31C,0.11811*%
%ADD32O,0.12000X0.10000*%
%ADD33C,0.07874*%
%ADD34O,0.09843X0.07874*%
%ADD35C,0.06299*%
%ADD36R,0.06299X0.06299*%
%ADD37R,0.06299X0.06299*%
%ADD38O,0.13780X0.13780*%
%ADD39R,0.07874X0.07874*%
%ADD40C,0.06000*%
%ADD41C,0.05000*%
G36*
X100962Y280548D02*
X93500D01*
Y266452D01*
X86037D01*
X84379Y268110D01*
Y277231D01*
X81453Y280158D01*
Y287181D01*
X89354Y287181D01*
X100962D01*
Y280548D01*
D02*
G37*
G36*
X114425Y286063D02*
X119400D01*
Y282746D01*
X113596D01*
Y264504D01*
X102817D01*
Y274454D01*
X106453Y278090D01*
Y286650D01*
X114425D01*
Y286063D01*
D02*
G37*
G36*
X251238Y285233D02*
Y263675D01*
X243775D01*
Y273625D01*
X237971Y279429D01*
Y287721D01*
X238800Y288550D01*
X247921D01*
X251238Y285233D01*
D02*
G37*
G36*
X75454Y280258D02*
X74625D01*
Y266163D01*
X82087Y258700D01*
X105304D01*
X113594Y250410D01*
X122555D01*
Y242535D01*
X116646D01*
X103798Y255383D01*
X80429Y255383D01*
X77113Y258700D01*
X63846Y258700D01*
X30134Y224988D01*
Y207134D01*
Y187108D01*
X38142Y179100D01*
Y171638D01*
X35673Y169169D01*
X29831D01*
X26533Y172467D01*
X13267D01*
X13267Y179100D01*
X27362D01*
Y180758D01*
X21866Y186255D01*
X21866Y223252D01*
X64675Y266061D01*
Y286274D01*
X65293Y286892D01*
X75454D01*
Y280258D01*
D02*
G37*
G36*
X135154Y276113D02*
X132667D01*
X131008Y274454D01*
Y267821D01*
X139300Y259529D01*
Y230508D01*
X138471Y229679D01*
X111108D01*
X103650Y222220D01*
X91205D01*
X88721Y224704D01*
X88721Y228850D01*
X90379Y230508D01*
Y242946D01*
X92037Y244604D01*
X99500D01*
X106963Y237142D01*
X116913D01*
X118571Y238800D01*
X125204D01*
X126033Y237971D01*
X133496D01*
X135983Y240458D01*
Y259529D01*
X131008Y264504D01*
X118953D01*
Y275283D01*
X130179D01*
X133496Y278600D01*
X135154D01*
Y276113D01*
D02*
G37*
G36*
X228021Y285176D02*
Y281088D01*
X225533Y278600D01*
X218900D01*
X207292Y266992D01*
Y232996D01*
X206463Y232167D01*
X194854D01*
Y263675D01*
X218071Y286892D01*
X226305D01*
X228021Y285176D01*
D02*
G37*
G36*
X61358Y238800D02*
X61358Y234654D01*
X61358Y232996D01*
X64675D01*
Y214754D01*
X57213D01*
Y234654D01*
X56383D01*
X55554Y235483D01*
Y238800D01*
X57213Y240458D01*
X61358D01*
Y238800D01*
D02*
G37*
G36*
X51408Y225533D02*
X46553D01*
X42287Y221268D01*
Y214754D01*
X34825D01*
Y221388D01*
X38142D01*
X43117Y226363D01*
Y232996D01*
X51408D01*
Y225533D01*
D02*
G37*
G36*
X79600Y242946D02*
Y236165D01*
X78089Y234654D01*
X68154D01*
X67163Y233663D01*
Y213725D01*
X65937Y212500D01*
X54129Y212500D01*
X51408Y209779D01*
X51408Y201488D01*
X60529Y192367D01*
X60527Y192365D01*
Y185736D01*
X61358Y184904D01*
X62187Y185733D01*
Y192367D01*
X53000Y201554D01*
Y210000D01*
X54681Y211681D01*
X68235D01*
X70047Y213493D01*
Y226500D01*
X75953D01*
Y213085D01*
X86995D01*
X90301Y209779D01*
X108621D01*
X118602Y219760D01*
X133465D01*
X134325Y218900D01*
Y204804D01*
X137642Y201488D01*
Y182417D01*
X142617Y177442D01*
Y173296D01*
X140129Y170808D01*
X133496D01*
X130179Y174125D01*
Y178271D01*
X134325Y182417D01*
Y201488D01*
X127452Y208361D01*
X68581D01*
X66048Y210894D01*
X56669D01*
X55000Y209225D01*
Y202042D01*
X63846Y193196D01*
Y187913D01*
X68154Y183604D01*
Y175783D01*
X61358D01*
X58871Y178271D01*
X58871Y191538D01*
X50579Y199829D01*
X49750D01*
X58042Y191538D01*
Y177442D01*
X66483Y169000D01*
X80279D01*
X87063Y175783D01*
Y181588D01*
X87892Y182417D01*
X94547D01*
Y163346D01*
X63846D01*
X52618Y174574D01*
X52618Y191588D01*
X45234Y198973D01*
X44252D01*
Y197016D01*
X51410Y189858D01*
Y173295D01*
X59700Y165004D01*
Y154453D01*
X53350D01*
Y164787D01*
X48063Y170075D01*
Y187420D01*
X41866Y193617D01*
Y204712D01*
X50657Y213504D01*
X64709Y213437D01*
X65937Y214665D01*
X65942Y241725D01*
X68821Y244604D01*
X77942D01*
X79600Y242946D01*
D02*
G37*
G36*
X231338Y237142D02*
X242946D01*
X245944Y240139D01*
X253725D01*
Y212267D01*
X243775D01*
X242945Y213097D01*
Y225532D01*
X249579Y232167D01*
Y233825D01*
X247921D01*
X242117Y228021D01*
X235483D01*
Y177442D01*
X232996Y174954D01*
X228021D01*
X226363Y176613D01*
X226363Y225533D01*
X224704Y227192D01*
X218900D01*
X208950Y217242D01*
Y208121D01*
X205631Y204802D01*
X199831D01*
X194856Y209778D01*
Y224706D01*
X197342Y227192D01*
X206463D01*
X219729Y240458D01*
X228021D01*
X231338Y237142D01*
D02*
G37*
G36*
X301262Y255822D02*
X301656Y255428D01*
Y221274D01*
Y216026D01*
X297244Y211614D01*
X282126D01*
Y219488D01*
X294751D01*
X296537Y221274D01*
Y229148D01*
X296144Y229542D01*
Y255822D01*
X289662Y262303D01*
X283071D01*
Y267815D01*
X289268D01*
X301262Y255822D01*
D02*
G37*
G36*
X315565Y201951D02*
X297325D01*
X283957Y188583D01*
Y177903D01*
X273278D01*
X273277Y177903D01*
X262303Y177903D01*
Y191394D01*
X253150Y200547D01*
X246850D01*
Y206453D01*
X272435D01*
X272569Y206318D01*
X272926Y206676D01*
X315565D01*
Y201951D01*
D02*
G37*
G36*
X117605Y194991D02*
Y184005D01*
X112880D01*
Y190822D01*
X115254Y193196D01*
Y195156D01*
X108932Y201479D01*
X96980Y201479D01*
X96980Y189847D01*
X96183Y189050D01*
X89550D01*
Y200880D01*
X81484D01*
Y205605D01*
X106991D01*
X117605Y194991D01*
D02*
G37*
G36*
X194854Y183246D02*
Y173296D01*
X191538Y169979D01*
X173296D01*
X169979Y173296D01*
Y177442D01*
X177455Y184917D01*
X193183D01*
X194854Y183246D01*
D02*
G37*
G36*
X106358Y163850D02*
X100453D01*
Y188097D01*
X100047Y188503D01*
Y197484D01*
X103000Y200437D01*
X106358D01*
Y163850D01*
D02*
G37*
G36*
X126197Y202237D02*
Y169816D01*
X131838Y164175D01*
X134899D01*
X135169Y164445D01*
X136449Y163165D01*
Y162870D01*
X136095Y162517D01*
X131008D01*
X126033Y167492D01*
X119653D01*
Y181841D01*
X120361Y182548D01*
Y195552D01*
X118323Y197590D01*
Y202237D01*
X120629Y204543D01*
X123891D01*
X126197Y202237D01*
D02*
G37*
G36*
X63650Y197992D02*
X67163Y194479D01*
Y189879D01*
X70479Y186563D01*
X72137Y186563D01*
X72137Y187392D01*
X70047Y189482D01*
Y196500D01*
X75953Y196500D01*
Y184374D01*
X79568Y180758D01*
X81258D01*
X87063Y186563D01*
X97126D01*
X98583Y185106D01*
Y150908D01*
X90379D01*
X87063Y147592D01*
X82917D01*
Y150908D01*
X85908D01*
X88721Y153721D01*
Y157650D01*
X96417D01*
Y184904D01*
X87892D01*
X78880Y175893D01*
X72941D01*
Y182442D01*
X65504Y189879D01*
X65504Y193196D01*
X57350Y201350D01*
Y209547D01*
X63650D01*
Y197992D01*
D02*
G37*
G36*
X126347Y151705D02*
X108953D01*
Y145843D01*
X103646D01*
Y150908D01*
X102817D01*
Y157542D01*
X111938D01*
X115943Y161547D01*
X126347D01*
Y151705D01*
D02*
G37*
G36*
X150079Y112767D02*
Y112352D01*
X152981D01*
X160547Y104786D01*
Y88953D01*
X153396D01*
Y107792D01*
X152567Y108621D01*
X150079D01*
Y106963D01*
X145104D01*
X144275Y107792D01*
Y111938D01*
X145933Y113596D01*
X149250D01*
X150079Y112767D01*
D02*
G37*
G36*
X70703Y98946D02*
Y83140D01*
X69650Y82087D01*
X60529D01*
X58892Y83725D01*
Y98946D01*
X62351Y102406D01*
X67244D01*
X70703Y98946D01*
D02*
G37*
G36*
X59700Y141788D02*
X51134Y133221D01*
Y111906D01*
X42130Y102902D01*
Y82087D01*
X34610D01*
Y105028D01*
X42933Y113350D01*
Y134142D01*
X53350Y144559D01*
Y148421D01*
X59700D01*
Y141788D01*
D02*
G37*
G36*
X21558Y160858D02*
X36483D01*
X38122Y159220D01*
X38122Y152547D01*
X31134Y145559D01*
Y119855D01*
X14096Y102817D01*
Y81258D01*
X19272Y76083D01*
X42130D01*
Y69650D01*
X19900D01*
X9972Y79578D01*
Y106156D01*
X13267Y109450D01*
X22866Y119050D01*
Y158371D01*
X14096D01*
Y165004D01*
X21558D01*
Y160858D01*
D02*
G37*
G36*
X159200Y77700D02*
X156713Y75213D01*
Y69650D01*
X155054Y67992D01*
X151738D01*
X150079Y69650D01*
Y73796D01*
X149250Y74625D01*
X141788D01*
Y82087D01*
X159200D01*
Y77700D01*
D02*
G37*
G36*
X70703Y75797D02*
Y62054D01*
X67244Y58595D01*
X62351D01*
X58871Y62075D01*
Y74625D01*
X60529Y76283D01*
X69650D01*
X70703Y75797D01*
D02*
G37*
G36*
X241288Y121058D02*
X320888D01*
X326692Y115254D01*
X359029D01*
X393025Y81258D01*
X487550D01*
X495842Y72967D01*
Y58871D01*
X495013Y58042D01*
X485892D01*
X482575Y61358D01*
Y66333D01*
X480088Y68821D01*
X447750D01*
X446092Y67163D01*
X445263Y66333D01*
Y60529D01*
X442775Y58042D01*
X436971D01*
X433654Y61358D01*
X433654Y66333D01*
X431167Y68821D01*
X398000Y68821D01*
X396342Y67163D01*
Y62187D01*
X393854Y59700D01*
X387221D01*
X384734Y62187D01*
Y76283D01*
X354884Y106133D01*
X333325D01*
X326692Y99500D01*
X326705Y99487D01*
Y61371D01*
X320888Y55554D01*
X313425D01*
X305346Y63633D01*
Y92102D01*
X296290Y101158D01*
X276113D01*
X267821Y92867D01*
Y61358D01*
X262049Y55587D01*
X252864D01*
X213096Y95354D01*
Y123546D01*
X217242Y127692D01*
X234654D01*
X241288Y121058D01*
D02*
G37*
G36*
X119437Y68784D02*
Y57063D01*
X94032Y57063D01*
X92500Y58595D01*
X90054D01*
X86594Y62054D01*
Y66946D01*
X90054Y70406D01*
X117815D01*
X119437Y68784D01*
D02*
G37*
G36*
X170808Y116913D02*
Y105700D01*
X178118Y98390D01*
Y75302D01*
X169150Y66334D01*
Y65031D01*
X169547Y64634D01*
X170767D01*
X185070Y78937D01*
X198500D01*
Y71063D01*
X187146D01*
X168821Y52737D01*
X163068Y52737D01*
X159609Y56197D01*
Y65202D01*
X169979Y75573D01*
Y94028D01*
X166453Y97555D01*
Y116293D01*
X163246Y119500D01*
X125352D01*
X96446Y90595D01*
X90054D01*
X90054Y100723D01*
X91736Y102406D01*
X100747D01*
X121888Y123546D01*
X164175D01*
X170808Y116913D01*
D02*
G37*
G36*
X140958Y97842D02*
Y90379D01*
X138471Y87892D01*
Y66381D01*
X142405Y62446D01*
Y57554D01*
X138471Y53619D01*
Y38971D01*
X134325Y34825D01*
Y6633D01*
X128521Y829D01*
X57213D01*
X55554Y2488D01*
Y32337D01*
X60529Y37312D01*
X126863Y37312D01*
X129350Y39800D01*
Y87063D01*
X131838Y89550D01*
Y91208D01*
X131008D01*
X121888Y82087D01*
Y80612D01*
Y77113D01*
X120229Y75454D01*
X112767D01*
X110279Y77942D01*
Y84575D01*
X113596Y87892D01*
X116913D01*
X130179Y101158D01*
X137642D01*
X140958Y97842D01*
D02*
G37*
G36*
X524863Y47262D02*
X486721Y9121D01*
X476771D01*
X475942Y9950D01*
Y22388D01*
X479258Y25704D01*
X484234D01*
X514084Y55554D01*
Y58871D01*
X514084D01*
X515742Y60529D01*
X524863D01*
Y47262D01*
D02*
G37*
G36*
X475113Y58042D02*
Y50579D01*
X457700Y33167D01*
Y9121D01*
X456871Y8292D01*
X445263D01*
X444433Y9121D01*
Y38142D01*
X466821Y60529D01*
X472625D01*
X475113Y58042D01*
D02*
G37*
G36*
X426192D02*
Y9121D01*
X425363Y8292D01*
X413754D01*
X412925Y9121D01*
Y24583D01*
X414894Y26551D01*
X414583Y26861D01*
Y58042D01*
X417071Y60529D01*
X423704D01*
X426192Y58042D01*
D02*
G37*
G36*
X357371Y85404D02*
Y73796D01*
X395513Y35654D01*
Y8292D01*
X393854Y6633D01*
X379759D01*
X377271Y9121D01*
Y29850D01*
X336642Y70479D01*
Y88410D01*
X342683Y93696D01*
X349079Y93696D01*
X357371Y85404D01*
D02*
G37*
G36*
X297671Y88721D02*
X297671Y57213D01*
X316742Y38142D01*
Y1658D01*
X315913Y829D01*
X288550D01*
X286063Y3317D01*
Y33167D01*
X275283Y43946D01*
Y87892D01*
X281917Y94525D01*
X291867D01*
X297671Y88721D01*
D02*
G37*
G36*
X233825Y36483D02*
X235127Y35181D01*
X260831D01*
X264504Y31508D01*
Y2488D01*
X262846Y829D01*
X223046D01*
X219729Y4146D01*
Y40629D01*
X209295Y51063D01*
X197000D01*
Y58937D01*
X211371D01*
X233825Y36483D01*
D02*
G37*
G36*
X197302Y31446D02*
Y2425D01*
X195644Y766D01*
X151698D01*
X150040Y2425D01*
Y31446D01*
X152527Y33933D01*
X194815D01*
X197302Y31446D01*
D02*
G37*
D10*
X264134Y215551D02*
D03*
X282126Y215551D02*
D03*
D11*
X273130Y186417D02*
D03*
D12*
X203626Y263500D02*
D03*
X219374D02*
D03*
X108126Y270000D02*
D03*
X123874D02*
D03*
D13*
X61205Y74291D02*
D03*
Y83937D02*
D03*
X38370D02*
D03*
Y74291D02*
D03*
D14*
X301575Y266831D02*
D03*
X313386D02*
D03*
X430610Y264469D02*
D03*
X418799D02*
D03*
X145905Y78500D02*
D03*
X134095D02*
D03*
X103405Y167000D02*
D03*
X91594D02*
D03*
X103405Y178500D02*
D03*
X91594D02*
D03*
X38906Y218500D02*
D03*
X27095D02*
D03*
X59905Y228000D02*
D03*
X48094D02*
D03*
X106000Y154500D02*
D03*
X94189D02*
D03*
X169405Y101000D02*
D03*
X157595D02*
D03*
X72594Y283500D02*
D03*
X84405D02*
D03*
X97594D02*
D03*
X109406D02*
D03*
X247406Y267000D02*
D03*
X235595D02*
D03*
X275406Y230000D02*
D03*
X263595D02*
D03*
X275406Y242250D02*
D03*
X263595D02*
D03*
X275406Y254500D02*
D03*
X263595D02*
D03*
D15*
X326083Y198917D02*
D03*
Y207972D02*
D03*
Y217028D02*
D03*
D16*
X348917Y207972D02*
D03*
D17*
X404675Y243363D02*
D03*
Y251198D02*
D03*
Y259111D02*
D03*
Y267143D02*
D03*
Y274899D02*
D03*
Y282773D02*
D03*
Y290529D02*
D03*
X341683Y290647D02*
D03*
Y282851D02*
D03*
Y274899D02*
D03*
Y267103D02*
D03*
Y258993D02*
D03*
Y251040D02*
D03*
Y243324D02*
D03*
Y235292D02*
D03*
X404675Y235450D02*
D03*
D18*
X417306Y283324D02*
D03*
X424786D02*
D03*
X417316Y292309D02*
D03*
X424796D02*
D03*
X417217Y274859D02*
D03*
X424698D02*
D03*
X328954Y254078D02*
D03*
X321474D02*
D03*
X328954Y243153D02*
D03*
X321474D02*
D03*
X328954Y265791D02*
D03*
X321474D02*
D03*
X122723Y186761D02*
D03*
X115243D02*
D03*
X285433Y265059D02*
D03*
X277953D02*
D03*
D19*
X416844Y227739D02*
D03*
Y235219D02*
D03*
X427080Y227640D02*
D03*
Y235121D02*
D03*
X312809Y204313D02*
D03*
Y211794D02*
D03*
X84239Y203242D02*
D03*
Y210723D02*
D03*
X403924Y180332D02*
D03*
Y187813D02*
D03*
X250487Y245257D02*
D03*
Y237777D02*
D03*
X223739Y246223D02*
D03*
Y238742D02*
D03*
D20*
X363307Y195276D02*
D03*
X368307D02*
D03*
X373307D02*
D03*
X378307D02*
D03*
X383307D02*
D03*
X388307D02*
D03*
X393307D02*
D03*
X398307D02*
D03*
X363307Y174016D02*
D03*
X368307D02*
D03*
X373307D02*
D03*
X378307D02*
D03*
X383307D02*
D03*
X388307D02*
D03*
X393307D02*
D03*
X398307D02*
D03*
D21*
X123000Y172374D02*
D03*
Y156626D02*
D03*
D22*
X56500Y157405D02*
D03*
Y145595D02*
D03*
X156500Y91905D02*
D03*
Y80094D02*
D03*
X60500Y206594D02*
D03*
Y218406D02*
D03*
X250000Y203500D02*
D03*
Y215311D02*
D03*
D23*
X404035Y187924D02*
Y211052D01*
X297210Y253378D02*
Y256629D01*
Y253378D02*
X298900Y251688D01*
X286811Y263287D02*
X290551D01*
X297210Y256629D01*
X282776Y279724D02*
Y286319D01*
X287894Y291437D02*
X337476D01*
X282776Y286319D02*
X287894Y291437D01*
X337872Y291040D02*
X341289D01*
X341683Y290647D01*
X337476Y291437D02*
X337872Y291040D01*
X424796Y292309D02*
X451194D01*
X456533Y269451D02*
Y286971D01*
X451194Y292309D02*
X456533Y286971D01*
X307480Y238878D02*
Y254528D01*
Y238878D02*
X319488Y226870D01*
X331791D02*
X348917Y209744D01*
X319488Y226870D02*
X331791D01*
X424742Y274903D02*
X425091Y275253D01*
X424742Y274903D02*
Y283279D01*
X424786Y283324D01*
X424698Y274859D02*
X424742Y274903D01*
X415929Y290529D02*
X417311Y291911D01*
Y292304D01*
Y283329D02*
Y291911D01*
Y292304D02*
X417316Y292309D01*
X417306Y283324D02*
X417311Y283329D01*
X404675Y290529D02*
X415929D01*
X417266Y283284D02*
X417306Y283324D01*
X418880Y292309D02*
X418885Y292315D01*
X346000Y147000D02*
X346677Y146323D01*
X351737D01*
X373307Y167894D01*
X328839Y198917D02*
X339764D01*
X326083D02*
X328839D01*
X357523Y235292D02*
X363287Y229528D01*
X341683Y235292D02*
X357523D01*
X363287Y205217D02*
Y229528D01*
X354035Y195965D02*
X363287Y205217D01*
X342717Y195965D02*
X354035D01*
X339764Y198917D02*
X342717Y195965D01*
X265118Y216535D02*
Y219516D01*
X275406Y229803D02*
Y230000D01*
X265118Y219516D02*
X275406Y229803D01*
X264134Y215551D02*
X265118Y216535D01*
X299096Y216704D02*
Y223833D01*
X309758Y213172D02*
X311431D01*
X299096Y223833D02*
Y225211D01*
Y223833D02*
X309758Y213172D01*
X311431D02*
X312809Y211794D01*
X315647Y274899D02*
X325787D01*
X328954Y265397D02*
Y271732D01*
X325787Y274899D02*
X328954Y271732D01*
X313386Y272638D02*
X315647Y274899D01*
X313386Y266831D02*
Y272638D01*
X307480Y254528D02*
Y275020D01*
Y254528D02*
X307930Y254078D01*
X321474D01*
X302776Y279724D02*
X307480Y275020D01*
X257972Y287697D02*
X269980D01*
X272776Y279724D02*
Y284902D01*
X269980Y287697D02*
X272776Y284902D01*
X255315Y285039D02*
X257972Y287697D01*
X255315Y270669D02*
Y285039D01*
Y270669D02*
X260925Y265059D01*
X277953D01*
X296850Y271752D02*
X301575Y267028D01*
X262776Y273740D02*
X264764Y271752D01*
X296850D01*
X301575Y266831D02*
Y267028D01*
X262776Y273740D02*
Y279724D01*
X328954Y265397D02*
X335358Y258993D01*
X285433Y264665D02*
X286811Y263287D01*
X285433Y264665D02*
Y265059D01*
X298900Y225408D02*
Y251688D01*
Y225408D02*
X299096Y225211D01*
X288703Y251885D02*
Y252410D01*
X286085Y254503D02*
X286611D01*
X279331Y261257D02*
X286085Y254503D01*
X277953Y265059D02*
X279331Y263681D01*
X286611Y254503D02*
X288703Y252410D01*
X279331Y261257D02*
Y263681D01*
X288900Y225408D02*
Y251688D01*
Y225408D02*
X289096Y225211D01*
X288703Y251885D02*
X288900Y251688D01*
X282185Y222933D02*
X284463Y225211D01*
X273130Y186811D02*
Y219984D01*
Y186417D02*
Y186811D01*
X276079Y222933D02*
X282185D01*
X273130Y219984D02*
X276079Y222933D01*
X290632Y204313D02*
X312809D01*
X273130Y186811D02*
X290632Y204313D01*
X284463Y225211D02*
X289096D01*
X297943Y215551D02*
X299096Y216704D01*
X282126Y215551D02*
X297943D01*
X256441Y203500D02*
X273130Y186811D01*
X250000Y203500D02*
X256441D01*
X299272Y286221D02*
X332087D01*
X292776Y279724D02*
X299272Y286221D01*
X332087D02*
X335456Y282851D01*
X341683D01*
X454641Y267559D02*
X456533Y269451D01*
X407748Y214764D02*
X448228D01*
X407677Y219882D02*
X434154D01*
X373307Y195276D02*
Y254941D01*
X353349Y274899D02*
X373307Y254941D01*
X322852Y238369D02*
Y241775D01*
X321474Y243153D02*
X322852Y241775D01*
Y238369D02*
X325928Y235292D01*
X448228Y214764D02*
X460925Y227461D01*
X404035Y211052D02*
X407748Y214764D01*
X403924Y187813D02*
X404035Y187924D01*
X460925Y227461D02*
Y254468D01*
X447835Y267559D02*
X460925Y254468D01*
X440256Y225984D02*
Y232972D01*
X438059Y235170D02*
X440256Y232972D01*
X426637Y235170D02*
X438059D01*
X424698Y237109D02*
X426637Y235170D01*
X424698Y237109D02*
Y274859D01*
X434154Y219882D02*
X440256Y225984D01*
X378307Y245630D02*
X391788Y259111D01*
X383307Y239508D02*
X394997Y251198D01*
X404675D01*
X378307Y195276D02*
Y245630D01*
X396808Y243363D02*
X404675D01*
X368307Y195276D02*
Y251279D01*
X398307Y195276D02*
Y224587D01*
X401459Y227739D01*
X388307Y195276D02*
Y234862D01*
X383307Y195276D02*
Y239508D01*
X401459Y227739D02*
X416844D01*
X391788Y259111D02*
X404675D01*
X388307Y234862D02*
X396808Y243363D01*
X352483Y267103D02*
X368307Y251279D01*
X348917Y209744D02*
X356703Y217530D01*
Y219105D01*
X348917Y207972D02*
Y209744D01*
X356703Y219105D02*
X357283Y219685D01*
X326083Y207972D02*
X348917D01*
X401673Y195276D02*
X403924Y193025D01*
X398307Y195276D02*
X401673D01*
X328839Y198917D02*
X339943Y187813D01*
X403924D01*
X447835Y267559D02*
X454641D01*
X445528Y275253D02*
X447835Y277559D01*
X425091Y275253D02*
X445528D01*
X430610Y264272D02*
X437323Y257559D01*
X447835D01*
X430610Y264272D02*
Y264469D01*
X404695Y274879D02*
X417198D01*
X404675Y274899D02*
X404695Y274879D01*
X417198D02*
X417217Y274859D01*
X416634Y266634D02*
X416831D01*
X404675Y267143D02*
X416125D01*
X418799Y264469D02*
Y264665D01*
X416831Y266634D02*
X418799Y264665D01*
X416125Y267143D02*
X416634Y266634D01*
X389862Y167028D02*
X433071D01*
X388307Y168583D02*
Y174016D01*
Y168583D02*
X389862Y167028D01*
X387303Y162795D02*
X423205D01*
X383307Y166791D02*
Y174016D01*
Y166791D02*
X387303Y162795D01*
X433071Y167028D02*
X462795Y137303D01*
X423205Y162795D02*
X470000Y116000D01*
X378307Y164902D02*
X384154Y159055D01*
X394980D02*
X420500Y133535D01*
X384154Y159055D02*
X394980D01*
X378307Y164902D02*
Y174016D01*
X420500Y116000D02*
Y133535D01*
X373307Y167894D02*
Y174016D01*
X297736Y162894D02*
X360039D01*
X368307Y171161D02*
Y174016D01*
X360039Y162894D02*
X368307Y171161D01*
X288000Y153157D02*
X297736Y162894D01*
X518778Y116722D02*
X519500Y116000D01*
X502559Y137303D02*
X518778Y121084D01*
Y116722D02*
Y121084D01*
X462795Y137303D02*
X502559D01*
X288000Y147000D02*
Y153157D01*
X341683Y267103D02*
X352483D01*
X416893Y235170D02*
X426637D01*
X341683Y274899D02*
X353349D01*
X416844Y235219D02*
X416893Y235170D01*
X404790Y235334D02*
X416729D01*
X404675Y235450D02*
X404790Y235334D01*
X416729D02*
X416844Y235219D01*
X416893Y227689D02*
X427031D01*
X427080Y227640D01*
X416844Y227739D02*
X416893Y227689D01*
X335358Y258993D02*
X341683D01*
X328954Y253684D02*
X331598Y251040D01*
X341683D01*
X328954Y253684D02*
Y254078D01*
X329040Y243238D02*
X341597D01*
X328954Y243153D02*
X329040Y243238D01*
X341597D02*
X341683Y243324D01*
X325928Y235292D02*
X341683D01*
X321474Y254078D02*
Y265397D01*
X312809Y211794D02*
X313202D01*
X314580Y213172D02*
Y213202D01*
X318406Y217028D02*
X326083D01*
X314580Y213202D02*
X318406Y217028D01*
X313202Y211794D02*
X314580Y213172D01*
Y202743D02*
Y202935D01*
X312809Y204313D02*
X313202D01*
X318406Y198917D02*
X326083D01*
X314580Y202743D02*
X318406Y198917D01*
X313202Y204313D02*
X314580Y202935D01*
X275406Y230000D02*
Y242250D01*
Y254500D01*
D24*
X390500Y116000D02*
X400661D01*
X383535D02*
X390500D01*
X440000D02*
X456468D01*
X438722D02*
X440000D01*
X480691Y180332D02*
X526673Y134350D01*
X403924Y180332D02*
X480691D01*
X526673Y113287D02*
X527039Y112922D01*
X521161Y105413D02*
X527039Y111291D01*
Y112922D01*
X526673Y113287D02*
Y134350D01*
X500087Y105413D02*
X521161D01*
X489500Y116000D02*
X500087Y105413D01*
X402165Y174016D02*
X403924Y175774D01*
X399007Y174016D02*
X402165D01*
X403924Y175774D02*
Y180332D01*
X255173Y209405D02*
X258268Y212500D01*
Y224476D01*
X239961Y192421D02*
Y207382D01*
Y192421D02*
X258114Y174268D01*
Y147114D02*
Y174268D01*
X239961Y207382D02*
X241984Y209405D01*
X255173D01*
X258268Y224476D02*
X263595Y229803D01*
Y230000D01*
Y242250D02*
Y254303D01*
X250880Y245257D02*
X258548Y252925D01*
X262216D02*
X263595Y254303D01*
X250487Y245257D02*
X250880D01*
X258548Y252925D02*
X262216D01*
X263595Y254303D02*
Y254500D01*
Y230000D02*
Y242250D01*
X220949Y263500D02*
X224449Y267000D01*
X235595D01*
X219374Y263500D02*
X220949D01*
X236797Y253203D02*
Y265797D01*
X235595Y267000D02*
X236797Y265797D01*
Y253203D02*
X238000Y252000D01*
X250093Y245257D02*
X250487D01*
X239501Y250499D02*
X245245D01*
X249306Y246045D02*
Y246439D01*
X245245Y250499D02*
X249306Y246439D01*
Y246045D02*
X250093Y245257D01*
X238000Y252000D02*
X239501Y250499D01*
X224921Y247404D02*
X229517Y252000D01*
X224921Y247010D02*
Y247404D01*
X224133Y246223D02*
X224921Y247010D01*
X229517Y252000D02*
X238000D01*
X223739Y246223D02*
X224133D01*
X436192Y113858D02*
X436579D01*
X408622Y108039D02*
X430374D01*
X436579Y113858D02*
X438722Y116000D01*
X430374Y108039D02*
X436192Y113858D01*
X360197Y139339D02*
X383535Y116000D01*
X258000Y147000D02*
X258114Y147114D01*
X258904Y143092D02*
Y146096D01*
X262657Y139339D02*
X316299D01*
X258000Y147000D02*
X258904Y146096D01*
Y143092D02*
X262657Y139339D01*
X316299D02*
X360197D01*
X316000Y139638D02*
Y147000D01*
Y139638D02*
X316299Y139339D01*
X400661Y116000D02*
X408622Y108039D01*
X456468Y116000D02*
X464724Y107744D01*
X481244D01*
X489500Y116000D01*
D25*
X288703Y251885D02*
D03*
X289096Y225211D02*
D03*
X75500Y179830D02*
D03*
D26*
X298703Y251885D02*
D03*
X299096Y225211D02*
D03*
X65500Y179830D02*
D03*
D27*
X93000Y196500D02*
D03*
X73000D02*
D03*
X103000D02*
D03*
X73000Y226500D02*
D03*
X93000D02*
D03*
X103000D02*
D03*
X83000D02*
D03*
D28*
X238000Y232000D02*
D03*
D29*
Y252000D02*
D03*
D30*
X89677Y269612D02*
D03*
X69747D02*
D03*
X223069Y283000D02*
D03*
X243000D02*
D03*
X136000Y176000D02*
D03*
X175862D02*
D03*
X74934Y240060D02*
D03*
X94864D02*
D03*
X192500Y180000D02*
D03*
X232362D02*
D03*
D31*
X65297Y63500D02*
D03*
Y95500D02*
D03*
X93000Y63500D02*
D03*
Y95500D02*
D03*
X165514Y58643D02*
D03*
X135500Y59000D02*
D03*
D32*
X229516Y118011D02*
D03*
Y11614D02*
D03*
D33*
X440000Y116000D02*
D03*
X470000D02*
D03*
X489500D02*
D03*
X519500D02*
D03*
X175165Y95500D02*
D03*
X135500D02*
D03*
X32991Y175722D02*
D03*
X33000Y155500D02*
D03*
X115491Y81222D02*
D03*
X115500Y61000D02*
D03*
X201689Y220783D02*
D03*
X201492Y236630D02*
D03*
X122260Y200606D02*
D03*
Y212221D02*
D03*
X122555Y235449D02*
D03*
Y246472D02*
D03*
X258000Y147000D02*
D03*
X288000D02*
D03*
X198500Y75000D02*
D03*
Y55000D02*
D03*
X47000Y122500D02*
D03*
X46000Y203000D02*
D03*
X420500Y116000D02*
D03*
X390500D02*
D03*
X346000Y147000D02*
D03*
X316000D02*
D03*
D34*
X470000Y56000D02*
D03*
X440000Y66000D02*
D03*
X519499Y56000D02*
D03*
X489500Y66000D02*
D03*
X288000Y87000D02*
D03*
X258000Y97000D02*
D03*
X390500Y66000D02*
D03*
X420500Y56000D02*
D03*
X316000Y97000D02*
D03*
X346000Y87000D02*
D03*
D35*
X447835Y257559D02*
D03*
Y267559D02*
D03*
X282776Y279724D02*
D03*
X272776D02*
D03*
X292776D02*
D03*
X302776D02*
D03*
X48000Y47500D02*
D03*
X30774Y66907D02*
D03*
X14542Y114184D02*
D03*
X52591Y130193D02*
D03*
X108000Y49500D02*
D03*
X194500Y97000D02*
D03*
X106299Y145843D02*
D03*
X81000Y149500D02*
D03*
X136449Y162870D02*
D03*
X45500Y221500D02*
D03*
X119400Y284404D02*
D03*
X138122Y277437D02*
D03*
X381724Y26158D02*
D03*
X421390Y35409D02*
D03*
X450721Y29209D02*
D03*
X319520Y19268D02*
D03*
D36*
X447835Y277559D02*
D03*
D37*
X262776Y279724D02*
D03*
D38*
X257500Y9000D02*
D03*
Y28291D02*
D03*
X123000Y27500D02*
D03*
Y8209D02*
D03*
D39*
X27000Y122500D02*
D03*
X26000Y203000D02*
D03*
D40*
X385922Y144666D02*
D03*
X17706Y260168D02*
D03*
X18706Y32168D02*
D03*
D41*
X407677Y219882D02*
D03*
X357283Y219685D02*
D03*
M02*
